<?xml version="1.0" encoding="UTF-8"?>
<svg height="128px" viewBox="0 0 128 128" width="128px" xmlns="http://www.w3.org/2000/svg" xmlns:xlink="http://www.w3.org/1999/xlink">
    <linearGradient id="a" gradientTransform="matrix(0.232143 0 0 0.328947 -8.566925 263.826965)" gradientUnits="userSpaceOnUse" x1="88.595886" x2="536.595886" y1="-449.394012" y2="-449.394012">
        <stop offset="0" stop-color="#d5d3cf"/>
        <stop offset="0.0384615" stop-color="#e3e2df"/>
        <stop offset="0.0769231" stop-color="#c0bfbc"/>
        <stop offset="0.923077" stop-color="#c0bfbc"/>
        <stop offset="0.961538" stop-color="#e3e2df"/>
        <stop offset="1" stop-color="#d5d3cf"/>
    </linearGradient>
    <path d="m 20 16 h 88 c 4.417969 0 8 3.582031 8 8 v 84 c 0 4.417969 -3.582031 8 -8 8 h -88 c -4.417969 0 -8 -3.582031 -8 -8 v -84 c 0 -4.417969 3.582031 -8 8 -8 z m 0 0" fill="url(#a)"/>
    <path d="m 20 12 h 88 c 4.417969 0 8 3.582031 8 8 v 84 c 0 4.417969 -3.582031 8 -8 8 h -88 c -4.417969 0 -8 -3.582031 -8 -8 v -84 c 0 -4.417969 3.582031 -8 8 -8 z m 0 0" fill="#f6f5f4"/>
    <path d="m 20 16 h 8 c 2.210938 0 4 1.789062 4 4 s -1.789062 4 -4 4 h -8 c -2.210938 0 -4 -1.789062 -4 -4 s 1.789062 -4 4 -4 z m 0 0" fill="#a626a4"/>
    <path d="m 36 28 h 16 c 2.210938 0 4 1.789062 4 4 s -1.789062 4 -4 4 h -16 c -2.210938 0 -4 -1.789062 -4 -4 s 1.789062 -4 4 -4 z m 0 0" fill="#a626a4"/>
    <path d="m 36 40 h 12 c 2.210938 0 4 1.789062 4 4 s -1.789062 4 -4 4 h -12 c -2.210938 0 -4 -1.789062 -4 -4 s 1.789062 -4 4 -4 z m 0 0" fill="#e45649"/>
    <path d="m 52 52 h 32 c 2.210938 0 4 1.789062 4 4 s -1.789062 4 -4 4 h -32 c -2.210938 0 -4 -1.789062 -4 -4 s 1.789062 -4 4 -4 z m 0 0" fill="#4078f2"/>
    <path d="m 52 64 h 8 c 2.210938 0 4 1.789062 4 4 s -1.789062 4 -4 4 h -8 c -2.210938 0 -4 -1.789062 -4 -4 s 1.789062 -4 4 -4 z m 0 0" fill="#e45649"/>
    <path d="m 36 76 h 16 c 2.210938 0 4 1.789062 4 4 s -1.789062 4 -4 4 h -16 c -2.210938 0 -4 -1.789062 -4 -4 s 1.789062 -4 4 -4 z m 0 0" fill="#e45649"/>
    <path d="m 36 88 h 36 c 2.210938 0 4 1.789062 4 4 s -1.789062 4 -4 4 h -36 c -2.210938 0 -4 -1.789062 -4 -4 s 1.789062 -4 4 -4 z m 0 0" fill="#4078f2"/>
    <path d="m 20 100 h 12 c 2.210938 0 4 1.789062 4 4 s -1.789062 4 -4 4 h -12 c -2.210938 0 -4 -1.789062 -4 -4 s 1.789062 -4 4 -4 z m 0 0" fill="#3d3846"/>
    <path d="m 40 16 h 16 c 2.210938 0 4 1.789062 4 4 s -1.789062 4 -4 4 h -16 c -2.210938 0 -4 -1.789062 -4 -4 s 1.789062 -4 4 -4 z m 0 0" fill="#a626a4"/>
    <path d="m 68 16 h 38 c 2.210938 0 4 1.789062 4 4 s -1.789062 4 -4 4 h -38 c -2.210938 0 -4 -1.789062 -4 -4 s 1.789062 -4 4 -4 z m 0 0" fill="#c18401"/>
    <path d="m 64 28 h 20 c 2.210938 0 4 1.789062 4 4 s -1.789062 4 -4 4 h -20 c -2.210938 0 -4 -1.789062 -4 -4 s 1.789062 -4 4 -4 z m 0 0" fill="#e45649"/>
    <path d="m 96 28 h 10 c 2.210938 0 4 1.789062 4 4 s -1.789062 4 -4 4 h -10 c -2.210938 0 -4 -1.789062 -4 -4 s 1.789062 -4 4 -4 z m 0 0" fill="#383a42"/>
    <path d="m 60 40 h 48 c 2.210938 0 4 1.789062 4 4 s -1.789062 4 -4 4 h -48 c -2.210938 0 -4 -1.789062 -4 -4 s 1.789062 -4 4 -4 z m 0 0" fill="#3d3846"/>
    <path d="m 96 52 h 12 c 2.210938 0 4 1.789062 4 4 s -1.789062 4 -4 4 h -12 c -2.210938 0 -4 -1.789062 -4 -4 s 1.789062 -4 4 -4 z m 0 0" fill="#e45649"/>
    <path d="m 72 64 h 8 c 2.210938 0 4 1.789062 4 4 s -1.789062 4 -4 4 h -8 c -2.210938 0 -4 -1.789062 -4 -4 s 1.789062 -4 4 -4 z m 0 0" fill="#3d3846"/>
    <path d="m 92 64 h 16 c 2.210938 0 4 1.789062 4 4 s -1.789062 4 -4 4 h -16 c -2.210938 0 -4 -1.789062 -4 -4 s 1.789062 -4 4 -4 z m 0 0" fill="#4078f2"/>
    <path d="m 64 76 h 4 c 2.210938 0 4 1.789062 4 4 s -1.789062 4 -4 4 h -4 c -2.210938 0 -4 -1.789062 -4 -4 s 1.789062 -4 4 -4 z m 0 0" fill="#3d3846"/>
    <path d="m 80 76 h 16 c 2.210938 0 4 1.789062 4 4 s -1.789062 4 -4 4 h -16 c -2.210938 0 -4 -1.789062 -4 -4 s 1.789062 -4 4 -4 z m 0 0" fill="#986801"/>
    <path d="m 108 76 c 2.210938 0 4 1.789062 4 4 s -1.789062 4 -4 4 s -4 -1.789062 -4 -4 s 1.789062 -4 4 -4 z m 0 0" fill="#3d3846"/>
    <path d="m 84 88 h 4 c 2.210938 0 4 1.789062 4 4 s -1.789062 4 -4 4 h -4 c -2.210938 0 -4 -1.789062 -4 -4 s 1.789062 -4 4 -4 z m 0 0" fill="#3d3846"/>
    <path d="m 100 88 h 8 c 2.210938 0 4 1.789062 4 4 s -1.789062 4 -4 4 h -8 c -2.210938 0 -4 -1.789062 -4 -4 s 1.789062 -4 4 -4 z m 0 0" fill="#986801"/>
    <path d="m 44 100 h 36 c 2.210938 0 4 1.789062 4 4 s -1.789062 4 -4 4 h -36 c -2.210938 0 -4 -1.789062 -4 -4 s 1.789062 -4 4 -4 z m 0 0" fill="#4078f2"/>
    <path d="m 92 100 h 16 c 2.210938 0 4 1.789062 4 4 s -1.789062 4 -4 4 h -16 c -2.210938 0 -4 -1.789062 -4 -4 s 1.789062 -4 4 -4 z m 0 0" fill="#e45649"/>
</svg>
